<mxfile host="app.diagrams.net" modified="2022-12-05T08:59:27.342Z" agent="5.0 (Windows NT 10.0; Win64; x64) AppleWebKit/537.36 (KHTML, like Gecko) Chrome/108.0.0.0 Safari/537.36" etag="i9iT_om9kgLSRgSmhuLu" version="20.6.0" type="github">
  <diagram id="Bu2ydEuoJ4epIPWZgko5" name="Page-1">
    <mxGraphModel dx="1038" dy="547" grid="1" gridSize="10" guides="1" tooltips="1" connect="1" arrows="1" fold="1" page="1" pageScale="1" pageWidth="827" pageHeight="1169" math="0" shadow="0">
      <root>
        <mxCell id="0" />
        <mxCell id="1" parent="0" />
        <mxCell id="aUy5saCZqPQEdKHK85cZ-5" style="edgeStyle=orthogonalEdgeStyle;rounded=0;orthogonalLoop=1;jettySize=auto;html=1;fontFamily=Lucida Console;fontSize=18;" parent="1" source="aUy5saCZqPQEdKHK85cZ-1" target="aUy5saCZqPQEdKHK85cZ-2" edge="1">
          <mxGeometry relative="1" as="geometry" />
        </mxCell>
        <mxCell id="aUy5saCZqPQEdKHK85cZ-6" style="edgeStyle=orthogonalEdgeStyle;rounded=0;orthogonalLoop=1;jettySize=auto;html=1;fontFamily=Lucida Console;fontSize=18;" parent="1" source="aUy5saCZqPQEdKHK85cZ-1" target="aUy5saCZqPQEdKHK85cZ-3" edge="1">
          <mxGeometry relative="1" as="geometry" />
        </mxCell>
        <mxCell id="aUy5saCZqPQEdKHK85cZ-1" value="RouteOrch::doTask" style="rounded=1;whiteSpace=wrap;html=1;fontFamily=Lucida Console;fontSize=18;labelBackgroundColor=default;" parent="1" vertex="1">
          <mxGeometry x="200" y="150" width="150" height="60" as="geometry" />
        </mxCell>
        <mxCell id="aUy5saCZqPQEdKHK85cZ-7" style="edgeStyle=orthogonalEdgeStyle;rounded=0;orthogonalLoop=1;jettySize=auto;html=1;fontFamily=Lucida Console;fontSize=18;" parent="1" source="aUy5saCZqPQEdKHK85cZ-2" target="aUy5saCZqPQEdKHK85cZ-4" edge="1">
          <mxGeometry relative="1" as="geometry" />
        </mxCell>
        <mxCell id="aUy5saCZqPQEdKHK85cZ-2" value="addRoute" style="rounded=1;whiteSpace=wrap;html=1;fontFamily=Lucida Console;fontSize=18;labelBackgroundColor=default;" parent="1" vertex="1">
          <mxGeometry x="90" y="310" width="150" height="60" as="geometry" />
        </mxCell>
        <mxCell id="aUy5saCZqPQEdKHK85cZ-3" value="addRoutePost" style="rounded=1;whiteSpace=wrap;html=1;fontFamily=Lucida Console;fontSize=18;labelBackgroundColor=default;" parent="1" vertex="1">
          <mxGeometry x="340" y="310" width="150" height="60" as="geometry" />
        </mxCell>
        <mxCell id="aUy5saCZqPQEdKHK85cZ-4" value="addNextHopGroup" style="rounded=1;whiteSpace=wrap;html=1;fontFamily=Lucida Console;fontSize=18;labelBackgroundColor=default;" parent="1" vertex="1">
          <mxGeometry x="200" y="525" width="150" height="60" as="geometry" />
        </mxCell>
        <mxCell id="6D62caDFJYMswKi_88OP-1" value="SAI" style="rounded=1;whiteSpace=wrap;html=1;fontFamily=Lucida Console;fontSize=18;labelBackgroundColor=default;" vertex="1" parent="1">
          <mxGeometry x="1370" y="270" width="150" height="60" as="geometry" />
        </mxCell>
        <mxCell id="6D62caDFJYMswKi_88OP-2" value="SRv6&amp;nbsp; upstream" style="text;html=1;strokeColor=none;fillColor=none;align=center;verticalAlign=middle;whiteSpace=wrap;rounded=0;fontFamily=Lucida Console;fontSize=48;" vertex="1" parent="1">
          <mxGeometry x="910" y="110" width="510" height="70" as="geometry" />
        </mxCell>
        <mxCell id="6D62caDFJYMswKi_88OP-4" value="orchagent" style="rounded=1;whiteSpace=wrap;html=1;fontFamily=Lucida Console;fontSize=18;labelBackgroundColor=default;" vertex="1" parent="1">
          <mxGeometry x="1370" y="460" width="150" height="60" as="geometry" />
        </mxCell>
        <mxCell id="6D62caDFJYMswKi_88OP-5" value="frr" style="rounded=1;whiteSpace=wrap;html=1;fontFamily=Lucida Console;fontSize=18;labelBackgroundColor=default;" vertex="1" parent="1">
          <mxGeometry x="1370" y="590" width="150" height="60" as="geometry" />
        </mxCell>
        <mxCell id="6D62caDFJYMswKi_88OP-6" value="" style="endArrow=none;dashed=1;html=1;dashPattern=1 3;strokeWidth=2;rounded=0;fontFamily=Lucida Console;fontSize=48;" edge="1" parent="1">
          <mxGeometry width="50" height="50" relative="1" as="geometry">
            <mxPoint x="1200" y="380" as="sourcePoint" />
            <mxPoint x="1630" y="380" as="targetPoint" />
            <Array as="points">
              <mxPoint x="1430" y="380" />
            </Array>
          </mxGeometry>
        </mxCell>
        <mxCell id="6D62caDFJYMswKi_88OP-7" value="&lt;font style=&quot;font-size: 18px;&quot;&gt;1st&lt;/font&gt;" style="text;html=1;strokeColor=none;fillColor=none;align=center;verticalAlign=middle;whiteSpace=wrap;rounded=0;fontFamily=Lucida Console;fontSize=48;" vertex="1" parent="1">
          <mxGeometry x="1200" y="310" width="60" height="40" as="geometry" />
        </mxCell>
        <mxCell id="6D62caDFJYMswKi_88OP-8" value="&lt;font style=&quot;font-size: 18px;&quot;&gt;srv6 vpn only&lt;/font&gt;" style="text;html=1;strokeColor=none;fillColor=none;align=center;verticalAlign=middle;whiteSpace=wrap;rounded=0;fontFamily=Lucida Console;fontSize=48;" vertex="1" parent="1">
          <mxGeometry x="980" y="240" width="210" height="40" as="geometry" />
        </mxCell>
        <mxCell id="6D62caDFJYMswKi_88OP-9" value="&lt;font style=&quot;font-size: 18px;&quot;&gt;2nd&lt;/font&gt;" style="text;html=1;strokeColor=none;fillColor=none;align=center;verticalAlign=middle;whiteSpace=wrap;rounded=0;fontFamily=Lucida Console;fontSize=48;" vertex="1" parent="1">
          <mxGeometry x="1200" y="460" width="60" height="40" as="geometry" />
        </mxCell>
        <mxCell id="6D62caDFJYMswKi_88OP-10" value="&lt;font style=&quot;font-size: 18px;&quot;&gt;3rd&lt;/font&gt;" style="text;html=1;strokeColor=none;fillColor=none;align=center;verticalAlign=middle;whiteSpace=wrap;rounded=0;fontFamily=Lucida Console;fontSize=48;" vertex="1" parent="1">
          <mxGeometry x="1200" y="600" width="60" height="40" as="geometry" />
        </mxCell>
      </root>
    </mxGraphModel>
  </diagram>
</mxfile>
